<svg version="1.1" xmlns="http://www.w3.org/2000/svg" xmlns:xlink="http://www.w3.org/1999/xlink" width="158.54003" height="175.814" viewBox="0,0,158.54003,175.814"><g transform="translate(-170.01398,-92.09299)"><g data-paper-data="{&quot;isPaintingLayer&quot;:true}" fill-rule="nonzero" stroke="#000000" stroke-width="2" stroke-linejoin="miter" stroke-miterlimit="10" stroke-dasharray="" stroke-dashoffset="0" style="mix-blend-mode: normal"><path d="M262.59785,157.78008l-10.16254,-15.46298l15.96721,-10.49393l10.16254,15.46298z" data-paper-data="{&quot;index&quot;:null}" fill="#444444" stroke-linecap="butt"/><path d="M297.9644,176.89513l-30.43239,-46.3049l16.30336,-10.71485l30.43239,46.3049z" data-paper-data="{&quot;index&quot;:null}" fill="#7c7c7c" stroke-linecap="butt"/><path d="M304.39484,202.15145l-13.64211,-20.75737l22.77428,-14.96765l13.6421,20.75737z" data-paper-data="{&quot;index&quot;:null}" fill="#444444" stroke-linecap="butt"/><path d="M217.1322,124.58309l7.49764,-31.49009h30.74032l7.49764,31.49009z" fill="#a4a2a8" stroke-linecap="butt"/><path d="M225.81697,103.65218c0,-3.07112 2.48964,-5.56075 5.56075,-5.56075c3.07112,0 5.56075,2.48964 5.56075,5.56075c0,3.07112 -2.48964,5.56075 -5.56075,5.56075c-3.07112,0 -5.56075,-2.48964 -5.56075,-5.56075z" fill="#ff0000" stroke-linecap="butt"/><path d="M244.24866,103.65218c0,-3.07112 2.48964,-5.56075 5.56075,-5.56075c3.07112,0 5.56075,2.48963 5.56075,5.56075c0,3.07112 -2.48964,5.56075 -5.56075,5.56075c-3.07112,0 -5.56075,-2.48964 -5.56075,-5.56075z" fill="#ff0000" stroke-linecap="butt"/><path d="M222.33369,122.05264l1.87441,-8.99717h32.33357l1.78069,8.99717z" fill="#d1cece" stroke-linecap="butt"/><path d="M257.10399,117.17917h-33.64566" fill="none" stroke-linecap="round"/><path d="M226.73855,121.58403v-8.43484" fill="none" stroke-linecap="round"/><path d="M230.76853,121.67775v-8.52857" fill="none" stroke-linecap="round"/><path d="M234.42363,113.24291v8.71601" fill="none" stroke-linecap="round"/><path d="M239.95314,113.14918v8.80973" fill="none" stroke-linecap="round"/><path d="M245.20149,121.86519v-8.71601" fill="none" stroke-linecap="round"/><path d="M248.76287,121.67776v-8.62229" fill="none" stroke-linecap="round"/><path d="M253.44889,121.58403v-8.34112" fill="none" stroke-linecap="round"/><path d="M209.49179,193.00082v-68.03067h61.01642v68.03067z" fill="#7c7c7c" stroke-linecap="butt"/><path d="M190.47288,143.90108v-18.50354h19.10691v18.50354z" fill="#444444" stroke-linecap="butt"/><path d="M171.01399,179.29915v-55.41005h19.50916v55.41005z" fill="#7c7c7c" stroke-linecap="butt"/><path d="M171.76821,203.93701v-24.83899h27.25249v24.83899z" fill="#444444" stroke-linecap="butt"/><path d="M247.32011,253.98012v-60.63727h16.49878v60.63727z" fill="#7c7c7c" stroke-linecap="butt"/><path d="M247.95795,266.907v-13.09697h32.99756v13.09697z" fill="#444444" stroke-linecap="butt"/><path d="M214.72833,253.98012v-60.63727h16.49878v60.63727z" data-paper-data="{&quot;index&quot;:null}" fill="#7c7c7c" stroke-linecap="butt"/><path d="M197.59171,266.907v-13.09697h32.99756v13.09697z" data-paper-data="{&quot;index&quot;:null}" fill="#444444" stroke-linecap="butt"/></g></g></svg>