<svg version="1.1" xmlns="http://www.w3.org/2000/svg" xmlns:xlink="http://www.w3.org/1999/xlink" width="454.01772" height="79.72273" viewBox="0,0,454.01772,79.72273"><g transform="translate(-12.99113,-140.13861)"><g data-paper-data="{&quot;isPaintingLayer&quot;:true}" fill-rule="nonzero" stroke="none" stroke-linecap="butt" stroke-linejoin="miter" stroke-miterlimit="10" stroke-dasharray="" stroke-dashoffset="0" style="mix-blend-mode: normal"><path d="M136.25261,211.72242l1.27476,1.667c-2.48415,2.48415 -5.70378,3.72635 -9.65896,3.72635c-3.95507,0 -7.10928,-1.2911 -9.46283,-3.87347c-2.35345,-2.58224 -3.53013,-5.98173 -3.53013,-10.19827c0,-4.21657 0.75177,-9.07048 2.25538,-14.56189l4.41267,-14.51289c-5.49132,6.92963 -10.52513,13.56499 -15.10123,19.90616c-9.02155,12.48632 -15.13388,20.85401 -18.33728,25.10333l-1.76508,-0.49031l-3.8243,-47.46099l-7.84485,14.31674c-7.45249,14.05525 -13.67938,23.32198 -18.68036,27.80002c-5.00103,4.47805 -11.6528,6.71714 -19.95521,6.71714c-7.06036,0 -12.91124,-2.51687 -17.55274,-7.55055c-3.66095,-4.1185 -5.49132,-9.05415 -5.49132,-14.80705c0,-1.04597 0.06538,-2.12461 0.19613,-3.23596l1.96119,0.19613c-0.13079,1.04597 -0.19613,2.05924 -0.19613,3.03982c0,5.2952 1.667,9.77333 5.00103,13.43423c4.24923,4.64149 9.60992,6.9622 16.0818,6.9622c7.77947,0 14.05525,-2.17366 18.82747,-6.52093c4.77222,-4.34729 10.7866,-13.31981 18.04307,-26.91744l17.65077,-32.06573c-6.92963,-0.13079 -13.64668,-1.22572 -20.15135,-3.28499c-6.50461,-2.05924 -12.32285,-3.08889 -17.45464,-3.08889c-5.13177,0 -9.43,1.79775 -12.89489,5.39337c-3.46474,3.59554 -5.19716,8.23706 -5.19716,13.92453h-1.96119c0,-6.27587 1.91214,-11.39135 5.73648,-15.34635c3.8243,-3.95507 8.77632,-5.9326 14.85608,-5.9326c4.90298,0 10.73759,1.06233 17.50368,3.18694c6.7662,2.12461 14.0716,3.18694 21.91638,3.18694l4.1185,52.95238l1.96119,-2.74565c13.79376,-18.95822 24.44961,-32.50692 31.96758,-40.64588c7.51796,-8.13903 13.59766,-12.20848 18.23913,-12.20848v1.96119c-2.02656,0 -4.60886,1.11135 -7.74669,3.33401c-0.45761,1.43821 -1.99388,6.42299 -4.60886,14.95415c-2.61492,8.53126 -4.952,15.98376 -7.01132,22.35766c-2.05924,6.37384 -3.08889,11.58746 -3.08889,15.64056c0,4.05311 0.71911,7.06036 2.15732,9.02155c1.37284,0 2.66397,-0.27785 3.87347,-0.83352c1.20941,-0.55566 2.10827,-1.12769 2.69663,-1.71604l0.78449,-0.78449" fill="#2a625c" stroke-width="NaN"/><path d="M165.86672,201.03386c-1.96119,2.35345 -4.41267,3.53013 -7.35453,3.53013c-2.94179,0 -5.24628,-0.75177 -6.91329,-2.25538c-1.667,-1.50357 -2.50052,-3.46474 -2.50052,-5.88357c0,-0.84985 0.52298,-4.41267 1.56896,-10.68857l3.23596,-17.55274h-4.1185l0.19613,-1.76508h4.21657c4.83759,0 8.40041,-0.19613 10.68857,-0.58836l1.37284,-0.29417l-6.7662,37.06673c1.96119,-0.19613 3.59554,-1.11135 4.90298,-2.74565l1.47089,1.1767" fill="#2a625c" stroke-width="NaN"/><path d="M157.2374,156.12239c-1.37284,-1.37284 -2.05924,-3.03982 -2.05924,-5.00103c0,-1.96119 0.68642,-3.64453 2.05924,-5.05009c1.37284,-1.40551 3.03982,-2.10827 5.00103,-2.10827c1.96119,0 3.64453,0.70278 5.05009,2.10827c1.40551,1.40551 2.10827,3.08889 2.10827,5.05009c0,1.96119 -0.70278,3.6282 -2.10827,5.00103c-1.40551,1.37284 -3.08889,2.05924 -5.05009,2.05924c-1.96119,0 -3.6282,-0.68642 -5.00103,-2.05924" fill="#2a625c" stroke-width="NaN"/><path d="M195.0886,183.1869c-1.37284,-1.37284 -2.05924,-3.03982 -2.05924,-5.00103c0,-1.96119 0.68642,-3.64453 2.05924,-5.05009c1.37284,-1.40551 3.03982,-2.10827 5.00103,-2.10827c0.58836,0 1.34015,0.13079 2.25538,0.39221c-1.24209,-2.28807 -3.56281,-3.43208 -6.9622,-3.43208c-3.39937,0 -6.40665,2.15732 -9.02155,6.47201c-2.61492,4.31468 -3.92235,10.72122 -3.92235,19.21979c0,2.94179 0.67006,5.11549 2.01021,6.52093c1.34015,1.40551 3.02351,2.10827 5.05009,2.10827c2.02656,0 3.87347,-0.39221 5.54044,-1.1767c1.667,-0.78449 2.99079,-1.71604 3.97142,-2.79469c0.9806,-1.07863 1.83045,-2.20642 2.54955,-3.38305c1.30747,-2.15732 1.96119,-3.53013 1.96119,-4.1185l1.76508,0.78449c-0.19613,1.04597 -0.78449,2.43515 -1.76508,4.16761c-0.9806,1.73239 -2.05924,3.15424 -3.23596,4.2656c-1.1767,1.11135 -2.90909,2.14099 -5.19716,3.08889c-2.28807,0.9479 -4.83759,1.42189 -7.64873,1.42189c-5.2952,0 -9.29939,-1.25842 -12.01237,-3.77528c-2.71307,-2.51687 -4.06945,-5.96526 -4.06945,-10.34537c0,-7.77947 1.94486,-13.87549 5.83464,-18.28817c3.88969,-4.41267 9.16866,-6.61911 15.83668,-6.61911c4.51071,0 7.97547,1.14402 10.3944,3.43208c2.41877,2.28807 3.6282,5.2952 3.6282,9.02155c0,2.35345 -0.70278,4.15119 -2.10827,5.39337c-1.40551,1.24209 -3.05617,1.86313 -4.952,1.86313c-1.89581,0 -3.53013,-0.68642 -4.90298,-2.05924" fill="#dac558" stroke-width="NaN"/><path d="M247.94299,202.60289c1.56896,0 3.20325,-0.91521 4.90298,-2.74565l1.47089,1.1767c-0.45761,0.91521 -1.47089,1.73239 -3.03982,2.45149c-1.56896,0.71911 -3.30135,1.07863 -5.19716,1.07863c-5.94892,0 -8.9234,-2.68027 -8.9234,-8.04087c0,-2.28807 0.58836,-6.37384 1.76508,-12.25752c1.1767,-5.88357 1.76508,-9.74067 1.76508,-11.57107c0,-2.81105 -1.34015,-4.21657 -4.0205,-4.21657c-2.22269,0 -4.36364,1.50357 -6.42299,4.51071c-2.05924,3.00724 -3.74261,7.09295 -5.05009,12.25752l-3.23596,18.43524h-11.76721l10.8847,-61.58171c-1.96119,0.19613 -3.59554,1.11135 -4.90298,2.74565l-1.47089,-1.1767c1.96119,-2.35345 4.42902,-3.53013 7.40346,-3.53013c2.97447,0 5.27885,0.75177 6.91329,2.25538c1.63434,1.50357 2.45149,3.6282 2.45149,6.37384c0,0.52298 -0.06538,1.37284 -0.19613,2.54955l-4.1185,23.24015c2.68027,-6.01431 6.83158,-9.02155 12.45363,-9.02155c3.857,0 6.86423,1.09502 9.02155,3.28499c2.15732,2.18998 3.23596,5.21349 3.23596,9.07048c0,2.02656 -0.62104,5.9326 -1.86313,11.71816c-1.24209,5.78548 -1.92851,10.11653 -2.05924,12.99296" fill="#dac558" stroke-width="NaN"/><path d="M293.54089,204.56406c-5.75292,0 -8.89082,-2.51687 -9.41374,-7.55055c-2.87642,5.03379 -6.50461,7.55055 -10.8847,7.55055c-4.38009,0 -7.86119,-1.32378 -10.44331,-3.97142c-2.58224,-2.6476 -3.87347,-6.35758 -3.87347,-11.12984c0,-7.45249 1.83045,-13.30349 5.49132,-17.55274c3.66095,-4.24923 8.40041,-6.37384 14.21869,-6.37384c4.77222,0 7.94289,2.25538 9.51185,6.7662c0.32686,-1.96119 0.68642,-3.92235 1.07863,-5.88357c4.83759,0 8.4332,-0.19613 10.7866,-0.58836l1.27476,-0.29417l-6.7662,37.06673c1.96119,-0.19613 3.59554,-1.11135 4.90298,-2.74565l1.47089,1.1767c-1.96119,2.35345 -4.41267,3.53013 -7.35453,3.53013zM270.00648,194.46382c0,2.94179 0.37591,4.98468 1.12769,6.1288c0.75177,1.14402 1.91214,1.71604 3.48111,1.71604c1.56896,0 3.17058,-0.84985 4.80489,-2.54955c2.15732,-2.22269 3.88969,-5.03379 5.19716,-8.4332c0.19613,-0.84985 0.57202,-2.89274 1.12769,-6.1288c0.55566,-3.23596 1.02962,-5.90001 1.42189,-7.99193c-0.19613,-2.48415 -0.88252,-4.64149 -2.05924,-6.47201c-1.1767,-1.83045 -2.6476,-2.74565 -4.41267,-2.74565c-3.20325,0 -5.78548,2.86017 -7.74669,8.58029c-1.96119,5.72015 -2.94179,11.68549 -2.94179,17.89599" fill="#dac558" stroke-width="NaN"/><path d="M324.33164,200.15133c-0.84985,1.11135 -2.01021,2.12461 -3.48111,3.03982c-1.47089,0.91521 -3.38305,1.37284 -5.73648,1.37284c-2.35345,0 -4.34729,-0.75177 -5.98173,-2.25538c-1.63434,-1.50357 -2.45149,-3.6282 -2.45149,-6.37384c0,-0.52298 0.06538,-1.37284 0.19613,-2.54955l6.37384,-35.30156c1.1767,-6.47201 2.79469,-11.0808 4.85391,-13.82646c2.05924,-2.74565 4.78855,-4.1185 8.18792,-4.1185c2.35345,0 4.29825,0.88252 5.83464,2.6476c1.53625,1.76508 2.3044,4.44534 2.3044,8.04087c0,3.59554 -1.38917,8.72736 -4.16761,15.39542c-2.77832,6.66804 -4.16761,11.53842 -4.16761,14.61094h-1.76508c0,-3.46474 1.37284,-8.41675 4.1185,-14.85608c2.74565,-6.43922 4.1185,-11.58746 4.1185,-15.44448c0,-2.35345 -0.53931,-4.38009 -1.61797,-6.07968c-1.07863,-1.69966 -2.40245,-2.54955 -3.97142,-2.54955c-0.06538,1.69966 -1.19305,9.33206 -3.38305,22.89704c-2.18998,13.56499 -4.36364,26.16567 -6.52093,37.80215c1.83045,0 3.53013,-0.9479 5.09919,-2.84371c1.56896,-1.89581 2.68027,-3.79161 3.33401,-5.68755l1.07863,-2.94179l1.76508,0.78449c-0.19613,0.91521 -0.70278,2.23904 -1.51993,3.97142c-0.81715,1.73239 -1.65067,3.15424 -2.50052,4.2656" fill="#dac558" stroke-width="NaN"/><path d="M347.76809,184.75595l-3.53013,18.92563h-11.6691l11.0808,-61.58171c-1.96119,0.19613 -3.59554,1.11135 -4.90298,2.74565l-1.47089,-1.1767c1.96119,-2.35345 4.42902,-3.53013 7.40346,-3.53013c2.97447,0 5.27885,0.75177 6.91329,2.25538c1.63434,1.50357 2.45149,3.6282 2.45149,6.37384c0,0.52298 -0.06538,1.37284 -0.19613,2.54955c-1.50357,8.30246 -3.13788,17.25859 -4.90298,26.86848c1.63434,-3.98773 3.98773,-7.09295 7.06036,-9.31574c3.07254,-2.22269 6.34125,-3.33401 9.80602,-3.33401c3.46474,0 5.90001,0.68642 7.3054,2.05924c1.40551,1.37284 2.10827,3.08889 2.10827,5.14812c0,2.05924 -0.62104,3.74261 -1.86313,5.05009c-1.24209,1.30747 -2.86017,1.96119 -4.85391,1.96119c-1.99388,0 -3.53013,-0.57202 -4.60886,-1.71604c-1.07863,-1.14402 -1.61797,-2.84371 -1.61797,-5.09919c0,-2.25538 0.78449,-3.97142 2.35345,-5.14812c-6.27587,0.71911 -11.27693,5.36058 -15.00323,13.92453c0.91521,-0.13079 1.69966,-0.19613 2.35345,-0.19613c3.46474,0 6.19418,0.68642 8.18792,2.05924c1.99388,1.37284 3.28499,3.05617 3.87347,5.05009c0.58836,1.99388 1.01326,3.98773 1.27476,5.98173c0.2615,1.99388 0.68642,3.67722 1.27476,5.05009c0.58836,1.37284 1.63434,2.05924 3.13788,2.05924c1.50357,0 2.68027,-0.62104 3.53013,-1.86313l1.47089,1.1767c-0.45761,0.91521 -1.47089,1.73239 -3.03982,2.45149c-1.56896,0.71911 -3.57926,1.07863 -6.03064,1.07863c-2.45149,0 -4.60886,-0.62104 -6.47201,-1.86313c-1.86313,-1.24209 -3.15424,-2.79469 -3.87347,-4.6578c-0.71911,-1.86313 -1.30747,-3.70989 -1.76508,-5.54044c-1.24209,-4.70684 -3.17058,-7.28919 -5.78548,-7.74669" fill="#dac558" stroke-width="NaN"/><path d="M411.99736,204.56406c-5.75292,0 -8.89082,-2.51687 -9.41374,-7.55055c-2.87642,5.03379 -6.50461,7.55055 -10.8847,7.55055c-4.38009,0 -7.86119,-1.32378 -10.44331,-3.97142c-2.58224,-2.6476 -3.87347,-6.35758 -3.87347,-11.12984c0,-7.45249 1.83045,-13.30349 5.49132,-17.55274c3.66095,-4.24923 8.40041,-6.37384 14.21869,-6.37384c4.77222,0 7.94289,2.25538 9.51185,6.7662c0.32686,-1.96119 0.68642,-3.92235 1.07863,-5.88357c4.83759,0 8.4332,-0.19613 10.7866,-0.58836l1.27476,-0.29417l-6.7662,37.06673c1.96119,-0.19613 3.59554,-1.11135 4.90298,-2.74565l1.47089,1.1767c-1.96119,2.35345 -4.41267,3.53013 -7.35453,3.53013zM388.46295,194.46382c0,2.94179 0.37591,4.98468 1.12769,6.1288c0.75177,1.14402 1.91214,1.71604 3.48111,1.71604c1.56896,0 3.17058,-0.84985 4.80489,-2.54955c2.15732,-2.22269 3.88969,-5.03379 5.19716,-8.4332c0.19613,-0.84985 0.57202,-2.89274 1.12769,-6.1288c0.55566,-3.23596 1.02962,-5.90001 1.42189,-7.99193c-0.19613,-2.48415 -0.88252,-4.64149 -2.05924,-6.47201c-1.1767,-1.83045 -2.6476,-2.74565 -4.41267,-2.74565c-3.20325,0 -5.78548,2.86017 -7.74669,8.58029c-1.96119,5.72015 -2.94179,11.68549 -2.94179,17.89599" fill="#dac558" stroke-width="NaN"/><path d="M444.45521,204.46593c-3.00724,0 -5.39337,-0.68642 -7.1584,-2.05924l-2.94179,15.78764h-11.6691l9.21755,-51.38348c-1.96119,0.19613 -3.59554,1.11135 -4.90298,2.74565l-1.47089,-1.1767c1.96119,-2.35345 4.39631,-3.53013 7.3054,-3.53013c2.90909,0 5.1809,0.70278 6.81513,2.10827c1.63434,1.40551 2.51687,3.38305 2.6476,5.9326c2.87642,-4.90298 6.53729,-7.35453 10.98272,-7.35453c4.44534,0 7.84485,1.25842 10.19827,3.77528c2.35345,2.51687 3.53013,5.96526 3.53013,10.34537c0,7.71412 -2.09195,13.77745 -6.27587,18.19018c-4.18386,4.41267 -9.60992,6.61911 -16.27792,6.61911zM441.51341,179.26455l-3.53013,19.21979c1.11135,2.48415 3.2197,3.72635 6.3248,3.72635c3.10522,0 5.81819,-2.61492 8.13903,-7.84485c2.32073,-5.22983 3.48111,-11.47304 3.48111,-18.72943c0,-3.00724 -0.31053,-5.06638 -0.93156,-6.17771c-0.62104,-1.11135 -1.74871,-1.667 -3.38305,-1.667c-1.63434,0 -3.31767,0.9806 -5.05009,2.94179c-1.73239,1.96119 -2.99079,3.80806 -3.77528,5.54044c-0.78449,1.73239 -1.1767,2.72931 -1.1767,2.99079h-0.09804" fill="#dac558" stroke-width="NaN"/></g></g></svg>